<svg version="1.1" id="Layer_1" xmlns="http://www.w3.org/2000/svg" xmlns:xlink="http://www.w3.org/1999/xlink" x="0px" y="0px"
	 width="100%" viewBox="0 0 420 420" enable-background="new 0 0 420 420" xml:space="preserve">
<path fill="#F0F0F0" opacity="1.000000" stroke="none" 
	d="
M278.000000,421.000000 
	C185.333344,421.000000 93.166687,421.000000 1.000025,421.000000 
	C1.000016,281.000031 1.000016,141.000061 1.000008,1.000062 
	C140.999954,1.000041 280.999908,1.000041 420.999908,1.000021 
	C420.999939,140.999939 420.999939,280.999878 420.999969,420.999908 
	C373.500000,421.000000 326.000000,421.000000 278.000000,421.000000 
M137.500000,106.000000 
	C127.417137,106.000000 117.334282,106.000000 106.805992,106.000000 
	C106.805992,82.263351 106.805992,59.343708 106.805992,36.428078 
	C82.968063,36.428078 59.600258,36.428078 36.348652,36.428078 
	C36.348652,60.107845 36.348652,83.357979 36.348652,107.071060 
	C59.612148,107.071060 82.531906,107.071060 105.633263,107.071060 
	C105.633263,130.240570 105.633263,152.941101 105.633263,176.107239 
	C82.351295,176.107239 59.431377,176.107239 36.375031,176.107239 
	C36.375031,246.602600 36.375031,316.629852 36.375031,386.704407 
	C60.000690,386.704407 83.250107,386.704407 107.141693,386.704407 
	C107.141693,363.375977 107.141693,340.335876 107.141693,316.840271 
	C130.701843,316.840271 153.621811,316.840271 177.172913,316.840271 
	C177.172913,270.009338 177.172913,223.641663 177.172913,177.326904 
	C200.397079,177.326904 222.980347,177.326904 246.199463,177.326904 
	C246.199463,224.017456 246.199463,270.385132 246.199463,317.212677 
	C269.755493,317.212677 292.675415,317.212677 316.231140,317.212677 
	C316.231140,340.713593 316.231140,363.754639 316.231140,386.641968 
	C340.127380,386.641968 363.377380,386.641968 386.731049,386.641968 
	C386.731049,316.374237 386.731049,246.464844 386.731049,175.911591 
	C363.430695,175.911591 340.389313,175.911591 317.287048,175.911591 
	C317.287048,152.683411 317.287048,130.100632 317.287048,106.875397 
	C340.606506,106.875397 363.647095,106.875397 386.695007,106.875397 
	C386.695007,82.980309 386.695007,59.730793 386.695007,36.402321 
	C363.020355,36.402321 339.652893,36.402321 315.821594,36.402321 
	C315.821594,59.720798 315.821594,82.640755 315.821594,106.000000 
	C256.403473,106.000000 197.451736,106.000000 137.500000,106.000000 
z"/>
<path fill="#D151A2" opacity="1.000000" stroke="none" 
	d="
M138.000000,106.000000 
	C197.451736,106.000000 256.403473,106.000000 315.821594,106.000000 
	C315.821594,82.640755 315.821594,59.720798 315.821594,36.402321 
	C339.652893,36.402321 363.020355,36.402321 386.695007,36.402321 
	C386.695007,59.730793 386.695007,82.980309 386.695007,106.875397 
	C363.647095,106.875397 340.606506,106.875397 317.287048,106.875397 
	C317.287048,130.100632 317.287048,152.683411 317.287048,175.911591 
	C340.389313,175.911591 363.430695,175.911591 386.731049,175.911591 
	C386.731049,246.464844 386.731049,316.374237 386.731049,386.641968 
	C363.377380,386.641968 340.127380,386.641968 316.231140,386.641968 
	C316.231140,363.754639 316.231140,340.713593 316.231140,317.212677 
	C292.675415,317.212677 269.755493,317.212677 246.199463,317.212677 
	C246.199463,270.385132 246.199463,224.017456 246.199463,177.326904 
	C222.980347,177.326904 200.397079,177.326904 177.172913,177.326904 
	C177.172913,223.641663 177.172913,270.009338 177.172913,316.840271 
	C153.621811,316.840271 130.701843,316.840271 107.141693,316.840271 
	C107.141693,340.335876 107.141693,363.375977 107.141693,386.704407 
	C83.250107,386.704407 60.000690,386.704407 36.375031,386.704407 
	C36.375031,316.629852 36.375031,246.602600 36.375031,176.107239 
	C59.431377,176.107239 82.351295,176.107239 105.633263,176.107239 
	C105.633263,152.941101 105.633263,130.240570 105.633263,107.071060 
	C82.531906,107.071060 59.612148,107.071060 36.348652,107.071060 
	C36.348652,83.357979 36.348652,60.107845 36.348652,36.428078 
	C59.600258,36.428078 82.968063,36.428078 106.805992,36.428078 
	C106.805992,59.343708 106.805992,82.263351 106.805992,106.000000 
	C117.334282,106.000000 127.417137,106.000000 138.000000,106.000000 
z"/>
</svg>