<?xml version="1.0" encoding="UTF-8" standalone="no"?>
<svg
   width="65"
   height="78"
   viewBox="0 0 65 78"
   fill="none"
   version="1.1"
   id="svg1"
   sodipodi:docname="download.svg"
   inkscape:version="1.4.3 (0d15f75, 2025-12-25)"
   xmlns:inkscape="http://www.inkscape.org/namespaces/inkscape"
   xmlns:sodipodi="http://sodipodi.sourceforge.net/DTD/sodipodi-0.dtd"
   xmlns="http://www.w3.org/2000/svg"
   xmlns:svg="http://www.w3.org/2000/svg">
  <defs
     id="defs1" />
  <sodipodi:namedview
     id="namedview1"
     pagecolor="#ffffff"
     bordercolor="#000000"
     borderopacity="0.25"
     inkscape:showpageshadow="2"
     inkscape:pageopacity="0.0"
     inkscape:pagecheckerboard="0"
     inkscape:deskcolor="#d1d1d1"
     showgrid="false"
     inkscape:zoom="10.910256"
     inkscape:cx="32.53819"
     inkscape:cy="39"
     inkscape:window-width="1920"
     inkscape:window-height="1111"
     inkscape:window-x="-9"
     inkscape:window-y="-9"
     inkscape:window-maximized="1"
     inkscape:current-layer="svg1" />
  <path
     d="M53.7692 27.2093H46.4729V4.53488C46.4729 2.0407 44.4079 0 41.884 0H23.5286C21.0047 0 18.9397 2.0407 18.9397 4.53488V27.2093H11.6434C7.55931 27.2093 5.49432 32.107 8.3853 34.9639L29.4482 55.7791C31.2379 57.5477 34.1289 57.5477 35.9185 55.7791L56.9814 34.9639C59.8724 32.107 57.8533 27.2093 53.7692 27.2093ZM0.584229 72.5581C0.584229 75.0523 2.64922 77.093 5.1731 77.093H60.2395C62.7634 77.093 64.8284 75.0523 64.8284 72.5581C64.8284 70.0639 62.7634 68.0232 60.2395 68.0232H5.1731C2.64922 68.0232 0.584229 70.0639 0.584229 72.5581Z"
     fill="black"
     id="path1" />
  <path
     style="fill:#000000;stroke-width:0.0916569"
     d="M 31.522523,56.888372 C 31.190757,56.801767 30.680606,56.587605 30.388855,56.412457 30.007249,56.183367 26.807233,53.079521 18.985016,45.351335 13.004655,39.442865 7.9785889,34.410903 7.815979,34.169196 7.1877298,33.235354 6.9529785,32.044902 7.1825298,30.956898 7.5515322,29.20794 8.8315403,27.842457 10.512429,27.404642 10.938594,27.29364 11.783759,27.26792 15.005156,27.26792 h 3.967817 V 15.723665 c 0,-8.0738879 0.03045,-11.6902657 0.101288,-12.0299644 0.358205,-1.7177021 1.828882,-3.18837913 3.546584,-3.54658364 0.646407,-0.13479958 19.389387,-0.14248181 20.101662,-0.008239 1.871923,0.35280179 3.409749,1.97732184 3.654183,3.86018744 0.05154,0.397009 0.08885,5.332137 0.09051,11.9721446 l 0.0028,11.29671 3.96416,0.0011 c 4.285077,0.0012 4.443445,0.01601 5.454779,0.510806 1.055176,0.516249 2.05519,1.866833 2.317782,3.130314 0.218993,1.053706 -0.03614,2.328055 -0.652354,3.258364 -0.258674,0.390528 -21.156346,21.136078 -22.006843,21.846648 -1.094841,0.914714 -2.608309,1.243061 -4.025036,0.873232 z"
     id="path2" />
  <path
     style="fill:#000000;stroke-width:0.0916569"
     d="m 31.522523,56.888372 c -0.331766,-0.0866 -0.84307,-0.300767 -1.136232,-0.475915 C 29.89546,56.119213 21.303537,47.714601 10.619097,37.076203 7.5105023,33.981004 7.3657314,33.787711 7.1421575,32.43392 6.8487072,30.657011 7.9078661,28.595203 9.5386322,27.768831 10.482995,27.290287 10.727088,27.26792 15.005156,27.26792 h 3.967817 V 15.723665 c 0,-8.0738879 0.03045,-11.6902657 0.101288,-12.0299644 0.358205,-1.7177021 1.828882,-3.18837913 3.546584,-3.54658364 0.646407,-0.13479958 19.389387,-0.14248181 20.101662,-0.008239 1.871923,0.35280179 3.409749,1.97732184 3.654183,3.86018744 0.05154,0.397009 0.08885,5.332137 0.09051,11.9721446 L 46.47,27.26792 h 3.966144 c 4.37367,0 4.652633,0.0296 5.623259,0.596749 1.003205,0.58618 1.900766,1.859157 2.147318,3.045459 0.218989,1.053684 -0.03614,2.328056 -0.652324,3.258319 -0.260217,0.392855 -21.143926,21.125721 -21.999093,21.840193 -1.102931,0.921472 -2.611922,1.250649 -4.032816,0.879732 z"
     id="path3" />
  <path
     style="fill:#dfd0b8;stroke-width:0.0916569;fill-opacity:1"
     d="m 31.522523,56.888372 c -0.331766,-0.0866 -0.84307,-0.300767 -1.136232,-0.475915 C 30.003564,56.1838 27.537539,53.808484 21.640501,47.988375 8.2057515,34.728885 7.8600452,34.378274 7.5310895,33.67877 6.9199553,32.379234 6.9475834,31.083152 7.6148372,29.75002 8.0247197,28.9311 8.7699118,28.158372 9.5128052,27.781919 10.486088,27.28872 10.708341,27.26792 15.005156,27.26792 h 3.967817 V 15.723665 c 0,-8.0738879 0.03045,-11.6902657 0.101288,-12.0299644 0.358205,-1.7177021 1.828882,-3.18837913 3.546584,-3.54658364 0.646407,-0.13479958 19.389387,-0.14248181 20.101662,-0.008239 1.871923,0.35280179 3.409749,1.97732184 3.654183,3.86018744 0.05154,0.397009 0.08885,5.332137 0.09051,11.9721446 L 46.47,27.26792 h 3.966144 c 4.37367,0 4.652633,0.0296 5.623259,0.596749 1.003205,0.58618 1.900766,1.859157 2.147318,3.045459 0.218972,1.053604 -0.03614,2.328058 -0.652208,3.258142 -0.260255,0.392914 -21.113059,21.097537 -21.996714,21.840404 -1.095863,0.921266 -2.610876,1.251538 -4.035311,0.879698 z"
     id="path4" />
  <path
     style="fill:#dfd0b8;fill-opacity:1;stroke-width:0.0916569"
     d="M 4.0431979,76.892735 C 2.4691356,76.469416 1.1947105,75.181385 0.78194241,73.596661 0.21643063,71.425515 1.4728802,69.163321 3.7195024,68.307687 l 0.5425423,-0.206629 28.1664443,-0.02379 c 30.913969,-0.02611 28.727136,-0.06395 29.875273,0.516928 1.729407,0.874954 2.740475,2.842767 2.407409,4.685472 -0.306289,1.694564 -1.652042,3.161374 -3.293624,3.5899 C 60.85364,77.016775 58.98087,77.026987 32.675676,77.026287 8.3943254,77.025641 4.4693217,77.007334 4.0431979,76.892735 Z"
     id="path5" />
</svg>
