<?xml version="1.0" encoding="UTF-8" standalone="no"?>
<svg
   width="78"
   height="78"
   viewBox="0 0 78 78"
   fill="none"
   version="1.1"
   id="svg1"
   sodipodi:docname="linkedin.svg"
   inkscape:version="1.4.3 (0d15f75, 2025-12-25)"
   xmlns:inkscape="http://www.inkscape.org/namespaces/inkscape"
   xmlns:sodipodi="http://sodipodi.sourceforge.net/DTD/sodipodi-0.dtd"
   xmlns="http://www.w3.org/2000/svg"
   xmlns:svg="http://www.w3.org/2000/svg">
  <defs
     id="defs1" />
  <sodipodi:namedview
     id="namedview1"
     pagecolor="#ffffff"
     bordercolor="#000000"
     borderopacity="0.25"
     inkscape:showpageshadow="2"
     inkscape:pageopacity="0.0"
     inkscape:pagecheckerboard="0"
     inkscape:deskcolor="#d1d1d1"
     inkscape:zoom="10.910256"
     inkscape:cx="38.954172"
     inkscape:cy="46.974148"
     inkscape:window-width="1920"
     inkscape:window-height="1111"
     inkscape:window-x="-9"
     inkscape:window-y="-9"
     inkscape:window-maximized="1"
     inkscape:current-layer="svg1" />
  <path
     d="M71.7906 0.000538991H6.09873C5.36029 -0.00965496 4.62707 0.12484 3.94093 0.396343C3.25478 0.667847 2.62917 1.07104 2.09981 1.5829C1.57046 2.09475 1.14772 2.70525 0.855756 3.37951C0.56379 4.05378 0.408308 4.77861 0.398193 5.51261V71.5804C0.408308 72.3144 0.56379 73.0392 0.855756 73.7135C1.14772 74.3877 1.57046 74.9982 2.09981 75.5101C2.62917 76.0219 3.25478 76.4251 3.94093 76.6966C4.62707 76.9681 5.36029 77.1026 6.09873 77.0924H71.7906C72.5291 77.1026 73.2623 76.9681 73.9485 76.6966C74.6346 76.4251 75.2602 76.0219 75.7896 75.5101C76.3189 74.9982 76.7417 74.3877 77.0336 73.7135C77.3256 73.0392 77.4811 72.3144 77.4912 71.5804V5.51261C77.4811 4.77861 77.3256 4.05378 77.0336 3.37951C76.7417 2.70525 76.3189 2.09475 75.7896 1.5829C75.2602 1.07104 74.6346 0.667847 73.9485 0.396343C73.2623 0.12484 72.5291 -0.00965496 71.7906 0.000538991ZM23.782 64.5265H12.1483V29.8351H23.782V64.5265ZM17.9652 24.9783C16.3607 24.9783 14.822 24.3448 13.6875 23.2171C12.553 22.0894 11.9156 20.5599 11.9156 18.9651C11.9156 17.3704 12.553 15.8409 13.6875 14.7132C14.822 13.5855 16.3607 12.952 17.9652 12.952C18.8171 12.8559 19.6799 12.9399 20.497 13.1982C21.314 13.4566 22.067 13.8836 22.7065 14.4513C23.3461 15.0189 23.8578 15.7145 24.2081 16.4924C24.5585 17.2702 24.7396 18.1129 24.7396 18.9651C24.7396 19.8174 24.5585 20.6601 24.2081 21.4379C23.8578 22.2158 23.3461 22.9114 22.7065 23.479C22.067 24.0467 21.314 24.4737 20.497 24.7321C19.6799 24.9904 18.8171 25.0744 17.9652 24.9783ZM65.7411 64.5265H54.1073V45.9088C54.1073 41.2447 52.4398 38.1996 48.2129 38.1996C46.9047 38.2091 45.6309 38.617 44.5632 39.3682C43.4954 40.1194 42.6849 41.1779 42.2409 42.4011C41.9375 43.3071 41.806 44.2612 41.8531 45.2149V64.4879H30.2194V29.7966H41.8531V34.6919C42.91 32.8691 44.4471 31.3674 46.2989 30.3486C48.1508 29.3297 50.2471 28.8323 52.3623 28.91C60.1181 28.91 65.7411 33.8824 65.7411 44.5597V64.5265Z"
     fill="black"
     id="path1" />
  <path
     style="fill:#dfd0b8;stroke-width:0.0916569;fill-opacity:1"
     d="M 4.8000445,76.900826 C 2.8159953,76.469315 1.1412963,74.841097 0.63938609,72.855646 0.45865852,72.140726 0.45716926,71.816885 0.48053049,38.312573 L 0.50411281,4.4911868 0.75423377,3.805829 C 1.2637557,2.409685 2.2240178,1.3282475 3.5287897,0.68115179 4.9137859,-0.00573082 1.8460097,0.04901142 38.954172,0.04901142 c 37.153233,0 34.032702,-0.05655203 35.450831,0.64246029 1.412398,0.69618779 2.451273,2.01148319 2.864308,3.62643609 0.178274,0.6970443 0.180748,1.1653734 0.180748,34.2238082 0,33.058434 -0.0025,33.526763 -0.180748,34.223808 -0.527282,2.061655 -2.029676,3.564049 -4.091331,4.091331 -0.697312,0.178343 -1.153213,0.180651 -34.261384,0.173461 -27.598673,-0.006 -33.6544037,-0.02898 -34.1165515,-0.12949 z M 23.830787,47.20329 V 29.834313 h -5.86604 -5.86604 V 47.20329 64.572268 h 5.86604 5.86604 z m 18.080026,6.851352 c 0.02677,-9.774084 0.04036,-10.556505 0.192225,-11.067568 0.823637,-2.771759 3.066254,-4.561303 5.879336,-4.691541 2.762069,-0.127877 4.64092,1.119309 5.506069,3.654943 0.542373,1.589623 0.525941,1.228379 0.563104,12.379136 l 0.03414,10.242656 h 5.866976 5.866975 L 65.784778,53.413043 C 65.747183,41.376981 65.757096,41.638033 65.248494,39.290547 64.005892,33.555239 60.257096,29.86817 54.839314,29.05276 c -1.196602,-0.180096 -3.839093,-0.211083 -4.748832,-0.05569 -3.099017,0.529356 -6.05946,2.362653 -7.699178,4.767828 L 41.93302,34.43712 41.90856,32.089886 41.8841,29.742653 h -5.864493 -5.864492 v 17.414806 17.414806 h 5.863446 5.863447 z M 19.858564,24.932702 c 1.118141,-0.210822 2.295503,-0.835635 3.095297,-1.642641 1.20348,-1.21433 1.696608,-2.354445 1.770044,-4.092352 0.03783,-0.895359 0.01409,-1.170135 -0.154098,-1.783179 -0.551912,-2.011737 -2.023803,-3.57811 -3.980876,-4.236411 -0.687573,-0.231278 -0.855112,-0.250372 -2.165899,-0.246831 -1.065532,0.0029 -1.569616,0.04448 -2.016452,0.1664 -1.645293,0.448931 -3.127923,1.640821 -3.834864,3.082853 -0.561626,1.145617 -0.685539,1.744127 -0.634444,3.064404 0.03414,0.882088 0.08893,1.226585 0.273716,1.72079 0.671529,1.796039 2.104502,3.198282 3.828965,3.746854 1.06194,0.337815 2.695075,0.431953 3.818611,0.220113 z"
     id="path2" />
</svg>
