<?xml version="1.0" encoding="UTF-8" standalone="no"?>
<svg
   width="81"
   height="79"
   viewBox="0 0 81 79"
   fill="none"
   version="1.1"
   id="svg1"
   sodipodi:docname="github.svg"
   inkscape:version="1.4.3 (0d15f75, 2025-12-25)"
   xmlns:inkscape="http://www.inkscape.org/namespaces/inkscape"
   xmlns:sodipodi="http://sodipodi.sourceforge.net/DTD/sodipodi-0.dtd"
   xmlns="http://www.w3.org/2000/svg"
   xmlns:svg="http://www.w3.org/2000/svg">
  <defs
     id="defs1" />
  <sodipodi:namedview
     id="namedview1"
     pagecolor="#ffffff"
     bordercolor="#000000"
     borderopacity="0.25"
     inkscape:showpageshadow="2"
     inkscape:pageopacity="0.0"
     inkscape:pagecheckerboard="0"
     inkscape:deskcolor="#d1d1d1"
     inkscape:zoom="10.772152"
     inkscape:cx="40.474736"
     inkscape:cy="39.5"
     inkscape:window-width="1920"
     inkscape:window-height="1111"
     inkscape:window-x="-9"
     inkscape:window-y="-9"
     inkscape:window-maximized="1"
     inkscape:current-layer="svg1" />
  <path
     d="M40.1526 0C17.9683 0 0 17.988 0 40.1966C0 57.9837 11.4937 73.0072 27.4543 78.3332C29.462 78.6849 30.2148 77.479 30.2148 76.4239C30.2148 75.4692 30.1646 72.3037 30.1646 68.9373C20.0763 70.7963 17.4664 66.4752 16.6633 64.2141C16.2116 63.0585 14.2542 59.491 12.5477 58.5364C11.1423 57.7827 9.13472 55.9236 12.4975 55.8733C15.6595 55.8231 17.9181 58.7876 18.671 59.9935C22.2847 66.0732 28.0566 64.3649 30.3654 63.3097C30.7167 60.6969 31.7707 58.9383 32.9251 57.9334C23.9912 56.9285 14.6557 53.4615 14.6557 38.0863C14.6557 33.7149 16.2116 30.0972 18.7713 27.2835C18.3698 26.2786 16.9645 22.1584 19.1729 16.6314C19.1729 16.6314 22.5356 15.5762 30.2148 20.7515C33.427 19.8471 36.84 19.3949 40.253 19.3949C43.666 19.3949 47.0789 19.8471 50.2911 20.7515C57.9703 15.526 61.3331 16.6314 61.3331 16.6314C63.5415 22.1584 62.1362 26.2786 61.7346 27.2835C64.2944 30.0972 65.8503 33.6647 65.8503 38.0863C65.8503 53.5118 56.4646 56.9285 47.5306 57.9334C48.9862 59.1896 50.2409 61.6014 50.2409 65.3698C50.2409 70.7461 50.1908 75.0672 50.1908 76.4239C50.1908 77.479 50.9436 78.7352 52.9512 78.3332C60.9235 75.6413 67.8512 70.5133 72.7585 63.6716C77.6658 56.8299 80.3053 48.6194 80.3052 40.1966C80.3052 17.988 62.3369 0 40.1526 0Z"
     fill="black"
     id="path1" />
  <path
     style="fill:#dfd0b8;stroke-width:0.092832"
     d="m 51.753819,78.312487 c -0.744383,-0.188434 -1.245241,-0.668795 -1.432913,-1.374275 -0.07315,-0.27499 -0.09632,-2.269579 -0.07818,-6.730317 0.02368,-5.822066 0.01186,-6.415275 -0.144832,-7.267824 -0.327481,-1.781826 -0.985585,-3.314528 -1.871655,-4.35902 l -0.508543,-0.599465 0.300672,-0.04577 c 3.030099,-0.461237 4.731359,-0.831997 6.342753,-1.382296 7.241516,-2.47301 10.833937,-7.585803 11.466472,-16.319268 0.361153,-4.986492 -0.742835,-8.933062 -3.429917,-12.261366 l -0.574982,-0.712191 0.238624,-0.819536 c 0.410652,-1.410354 0.530968,-2.488244 0.474874,-4.25432 -0.05665,-1.783511 -0.23799,-2.845894 -0.765683,-4.485705 -0.4053,-1.259476 -0.415922,-1.266885 -1.708229,-1.191657 -2.277314,0.132566 -5.236083,1.302783 -8.540541,3.377855 l -1.253231,0.78698 -1.206816,-0.284565 c -3.205599,-0.755876 -5.219043,-0.979503 -8.819036,-0.979503 -3.603488,0 -5.630548,0.225449 -8.819037,0.98085 l -1.206815,0.285913 -1.021152,-0.646486 c -3.025243,-1.915266 -5.755616,-3.088179 -7.976736,-3.426644 -1.01942,-0.155345 -1.981836,-0.121095 -2.108758,0.07505 -0.117527,0.181621 -0.626021,1.784012 -0.789149,2.486801 -0.536168,2.309922 -0.512447,5.03012 0.06156,7.059305 0.108322,0.382932 0.218009,0.781107 0.243748,0.884835 0.03313,0.133488 -0.10884,0.37761 -0.485868,0.835487 -1.560463,1.895087 -2.67706,4.249685 -3.191213,6.729392 -0.287177,1.385027 -0.380524,3.077967 -0.279496,5.068916 0.190083,3.745945 0.807631,6.397613 2.094411,8.993121 2.136845,4.31014 5.862294,7.045245 11.503183,8.44527 0.765125,0.189898 2.267619,0.459743 4.213483,0.756733 l 0.314539,0.04801 -0.371016,0.387921 c -0.948713,0.991941 -1.620332,2.407387 -1.966945,4.145371 l -0.156921,0.786826 -1.004405,0.351816 c -1.24665,0.436666 -2.312186,0.62741 -3.504856,0.62741 -2.917266,0 -5.085971,-1.314249 -7.05633,-4.276182 -1.226124,-1.843166 -2.387956,-2.939976 -3.835352,-3.620707 -0.943465,-0.443725 -1.688566,-0.588802 -2.72154,-0.529905 -2.1841994,0.124538 -2.073056,1.177502 0.286314,2.712527 1.486152,0.966902 3.009274,3.081069 4.237558,5.881934 0.243456,0.555157 0.583044,1.214503 0.754639,1.465214 1.277345,1.866276 3.288521,2.981519 6.104743,3.385217 1.004886,0.144048 4.30049,0.06343 5.533794,-0.135374 0.506296,-0.08161 0.944927,-0.124026 0.974736,-0.09425 0.02981,0.02978 0.0542,1.84326 0.0542,4.029969 v 3.975835 l -0.279738,0.402803 c -0.390766,0.562678 -0.934424,0.820547 -1.72993,0.820547 -0.5065,0 -0.831389,-0.07617 -1.722224,-0.403784 C 19.499207,75.365059 13.450021,71.007799 8.8417788,65.258403 3.8603354,59.043389 0.9037691,51.629847 0.18654077,43.555533 0.06247122,42.1588 0.062352,38.186855 0.18633962,36.854289 0.57623052,32.663908 1.3936268,29.174866 2.850498,25.482374 4.8740453,20.35362 7.8691747,15.773362 11.743243,11.88327 21.019893,2.568253 34.114641,-1.5949775 47.065805,0.65312195 50.7848,1.2986755 54.522601,2.5252095 57.880729,4.2019651 c 1.94569,0.9715076 2.649845,1.3786368 4.455934,2.5763338 8.201861,5.4390161 14.116707,13.7241431 16.611907,23.2688651 1.396261,5.341022 1.668861,11.047032 0.78866,16.508065 -2.310639,14.335904 -12.11032,26.278051 -25.709028,31.329697 -1.119932,0.416032 -1.808546,0.545484 -2.274383,0.427561 z"
     id="path2" />
</svg>
